<?xml version="1.0" encoding="UTF-8"?>
<svg id="Layer_2" xmlns="http://www.w3.org/2000/svg" viewBox="0 0 897.96 897.96">
  <defs>
    <style>
      .cls-1 {
        fill: #fff;
      }
    </style>
  </defs>
  <g id="Layer_1-2" data-name="Layer_1">
    <g>
      <g>
        <path class="cls-1" d="M444.62,897.94s-.01,0-.02,0c-15.88-.36-24.37-.72-35.11-1.82-10.92-.82-19.03-1.95-34.74-4.42-.02,0-.05,0-.07-.01-13.65-2.4-20.23-3.66-30.45-6.29-10.43-2.33-16.56-4.13-29.87-8.23,0,0,0,0-.01,0-11.67-3.71-16.85-5.43-26.26-9.21-9.71-3.53-14.09-5.48-25.04-10.41,0,0,0,0,0,0-9.74-4.44-13.75-6.31-22.13-10.85-8.72-4.37-12.02-6.33-21.15-11.73,0,0,0,0,0,0-8.44-5.01-11.64-6.94-19.21-12.13-7.75-4.98-10.53-7.04-18.34-12.81,0,0-.02-.01-.02-.02-7.54-5.58-10.2-7.54-17.11-13.37-7-5.55-9.44-7.75-16.36-13.98t0,0c-6.89-6.21-9.33-8.4-15.58-14.78-6.45-6.21-8.66-8.62-14.95-15.48h0c-6.45-7.04-8.74-9.55-14.44-16.62-5.84-6.83-8.05-9.74-13.8-17.39,0,0,0,0,0,0-6.14-8.19-8.35-11.14-13.52-19.1-5.25-7.56-7.45-11.17-12.71-19.93,0,0,0,0,0-.01-5.8-9.75-8.08-13.62-12.51-22.45-4.62-8.5-6.77-13.1-11.48-23.5,0,0,0-.01,0-.01-5.35-12.04-7.62-17.28-11.12-27.17-3.74-9.55-5.68-15.58-9.57-28.29,0,0,0-.01,0-.02-4.36-15.16-6.4-22.64-8.6-33.59-2.44-10.54-3.84-18.85-6.17-34.47,0,0,0,0,0,0h0c-.17-1.24-.33-2.47-.47-3.69-2.17-17.54-3.15-32.51-3.42-46.32-.5-15.5-.2-32.44,1.54-52.94,0-.05.01-.1.02-.14,3.57-28.94,5.9-43.08,9.96-59.93,2.16-9.06,4.94-19.5,8.78-33.19,0-.03.02-.05.03-.08,6.74-19.58,11.14-31.43,16.14-42.84,5.02-11.77,10.75-23.25,20.8-42.22.02-.04.05-.08.07-.12,15.49-25.48,23.84-38.04,34.69-51.96,6.23-8.03,13.72-17.13,23.95-29.15.05-.05.09-.1.14-.14,3.85-3.93,7.37-7.5,10.65-10.8,14.69-14.8,24.26-23.85,38.68-35.43,2.27-1.82,4.62-3.68,7.1-5.6,6.3-4.9,13.57-10.37,22.39-16.92.02-.01.04-.02.05-.03,3.83-2.42,7.38-4.65,10.72-6.73,17.11-10.68,28.09-17.15,43.25-24.56,5.1-2.5,10.48-5.01,16.59-7.75,5.68-2.56,12.04-5.36,19.34-8.53,0,0,.01,0,.02,0,15.15-5.43,26.05-9.13,35.7-12.03,14.49-4.44,27.38-7.43,52.34-12.39,0,0,.02,0,.03,0,17.89-2.68,28.41-4.04,39.58-4.84,11.54-1.03,21.9-1.33,40.4-1.48.01,0,.02,0,.04,0,15.86.36,24.35.72,35.09,1.82,10.92.82,19.04,1.95,34.75,4.42,0,0,0,0,.01,0,13.7,2.41,20.27,3.66,30.52,6.3,10.42,2.33,16.55,4.13,29.87,8.22,0,0,.02,0,.02,0,11.66,3.71,16.84,5.42,26.25,9.2,9.7,3.53,14.09,5.48,25.04,10.41,0,0,0,0,0,0,9.73,4.43,13.74,6.3,22.13,10.85,8.72,4.37,12.02,6.33,21.15,11.73,0,0,0,0,.01,0,8.43,5.01,11.64,6.94,19.21,12.13,7.74,4.97,10.53,7.04,18.34,12.8,0,0,.02.01.02.02,7.53,5.57,10.19,7.54,17.1,13.35,7.01,5.56,9.46,7.76,16.37,13.99,0,0,0,0,0,0,6.89,6.2,9.32,8.4,15.57,14.77,6.46,6.21,8.67,8.63,14.96,15.49,0,0,0,0,0,0,6.45,7.04,8.75,9.54,14.46,16.63,5.83,6.82,8.04,9.73,13.78,17.37,0,0,0,0,0,0,6.12,8.16,8.33,11.12,13.46,19.01,5.39,7.75,7.44,11.14,12.77,20.02,0,0,0,0,0,.01,5.8,9.75,8.08,13.62,12.51,22.44,4.61,8.5,6.77,13.1,11.49,23.5,0,0,0,.02.01.03,5.34,12.02,7.61,17.26,11.11,27.13,3.74,9.56,5.69,15.6,9.58,28.31,0,0,0,.02,0,.02,4.36,15.16,6.4,22.65,8.6,33.6,2.44,10.53,3.84,18.84,6.16,34.45,0,0,0,.02,0,.03,2.64,21.47,3.8,37.95,4.04,52.92.39,16.08-.22,33.66-2.43,57.31,0,.03,0,.06-.01.1-3.76,26.97-6.23,40.98-10.11,56.5-2.41,9.73-5.54,20.88-10.07,36.06,0,0,0,.01,0,.02-7.05,19.48-11.62,31.25-16.82,42.6-5.21,11.7-11.11,23.08-21.45,41.87-.01.02-.02.03-.03.05-11.51,18.61-18.38,29.11-26.41,39.79-7.36,10.07-15.36,19.8-28.79,35.34-.09.09-.17.17-.26.26-3.7,3.78-7.11,7.24-10.29,10.43-15.09,15.21-24.77,24.36-39.72,36.31-1.77,1.42-3.6,2.86-5.5,4.34-6.48,5.06-13.99,10.72-23.2,17.54-.02.01-.04.02-.05.03-3.84,2.43-7.41,4.66-10.75,6.75-16.97,10.59-27.9,17.04-42.88,24.37-5.35,2.63-10.99,5.25-17.45,8.16-5.55,2.5-11.74,5.23-18.82,8.3,0,0,0,0,0,0,0,0,0,0,0,0-15.18,5.44-26.1,9.15-35.76,12.05-14.46,4.43-27.36,7.42-52.28,12.38,0,0,0,0-.01,0,0,0,0,0-.01,0-17.91,2.69-28.44,4.04-39.62,4.85-11.53,1.03-21.89,1.33-40.37,1.48ZM409.61,894.92c8.41.63,18.49,1.08,35.03,1.82,18.55-.45,29.7-.71,40.27-1.47,10.15-.91,21.2-2.38,39.52-4.83,23.34-4.85,35.99-7.49,52.14-12.34,9.77-2.99,20.26-6.65,35.68-12.02,7.23-3.15,13.48-5.89,19.11-8.43,6.37-2.87,11.89-5.45,16.94-7.92,13.39-6.58,24.91-13.18,42.8-24.31,3.36-2.1,6.96-4.36,10.87-6.82,9.22-6.86,16.68-12.46,23.23-17.58,1.86-1.45,3.63-2.85,5.34-4.22,13.25-10.61,23.44-19.97,39.42-36.01,3.29-3.32,6.84-6.92,10.76-10.91,0,0,0,0,0,0,13.33-15.9,21.48-25.64,28.7-35.23,7.69-10.52,14.66-21.42,26.38-39.75,10.05-18.82,16.05-30.08,21.4-41.77,5.08-11.43,9.51-23.18,16.78-42.49,4.44-15.27,7.55-25.96,10.06-36.02,4.46-18.06,6.4-31.26,10.09-56.4,1.53-21.38,2.73-38.02,2.42-57.13-.42-17.43-2.02-33.09-4.03-52.83-2.81-16.32-4.52-26.28-6.15-34.35-1.91-8.26-4.45-17.9-8.59-33.53-4.49-13.46-7.28-21.82-9.55-28.23-2.51-6.41-5.83-14.41-11.09-27.09-5.39-11.12-8.81-18.16-11.45-23.43-2.84-5.23-6.61-11.94-12.49-22.4-6-9.46-9.83-15.5-12.73-19.96-3.03-4.36-7.11-10.09-13.43-18.97,0,0,0,0,0,0-6.45-8.16-10.61-13.43-13.74-17.31-3.26-3.81-7.65-8.84-14.43-16.6-6.99-7.27-11.52-11.98-14.92-15.44-3.49-3.36-8.23-7.84-15.53-14.74-7.64-6.55-12.6-10.82-16.33-13.95-3.83-3.04-9.03-7.08-17.08-13.34-8.54-5.99-14.09-9.89-18.29-12.77-4.29-2.76-10.11-6.42-19.17-12.11-9.85-5.5-16.21-9.05-21.09-11.69-4.94-2.47-11.61-5.73-22.08-10.83-11.67-4.9-19.14-8.04-24.97-10.38-5.89-2.14-13.73-4.86-26.21-9.19-14-3.93-22.76-6.39-29.79-8.2-7.02-1.57-16-3.38-30.45-6.29-16.19-2.19-26.13-3.53-34.66-4.41-8.41-.63-18.49-1.08-35.03-1.82-18.56.45-29.72.72-40.29,1.48-10.14.91-21.19,2.38-39.49,4.83-23.36,4.86-36.03,7.49-52.2,12.36-9.76,2.99-20.23,6.64-35.63,12.01,0,0,0,0,0,0-7.37,3.21-13.72,6-19.44,8.57-6.13,2.77-11.47,5.26-16.36,7.65-13.5,6.62-25.07,13.25-43.08,24.46-3.35,2.09-6.94,4.35-10.84,6.8-8.9,6.62-16.15,12.06-22.53,17.03-2.38,1.85-4.62,3.62-6.75,5.33-12.87,10.34-22.97,19.64-38.58,35.31-3.32,3.34-6.9,6.98-10.86,11-.01.01-.02.02-.03.04-10.17,12.14-17.46,20.84-23.88,29.06-12.71,16.4-20.12,28.39-34.67,51.94-9.74,18.96-15.57,30.29-20.74,42.08-4.92,11.54-9.16,23.36-16.13,42.81-3.79,13.86-6.56,23.96-8.79,33.24-4.74,19.93-6.46,33.17-9.92,59.79,0,0,0,.02,0,.02-.99,17.78-1.9,34.23-1.53,52.77.22,6.76.59,13.24,1.07,19.63,1.56-51.14,24.59-102.37,67.63-149.78.28-.31.56-.62.84-.92C201.51,186.1,475.88,123.08,684.08,187.96h.02s0-.2,0-.2l.12.06-.03-.11.36.09.06-.08h0s0-.07,0-.07l.29.14h.03s.09.06.09.06l.06-.1.31.25.06-.04.26.24h.02s.02.02.02.02h0s.06.11.06.11l.21.17-.04.07.27.31-.08.05.05.06h0s.19.33.19.33l-.18.07.1.33-.11-.02-.13.03v.26s0,0,0,0v.03l-.07-.03-.25-.03-.04.09v.11s-.33-.13-.33-.13l-.04.03-.04-.05-.04.1-.22-.14h0s0,0,0,0l-.13-.08-.06.06-.27-.25-.05.02-.42-.48c-.08-.02-.14-.05-.22-.07-.37-.12-.75-.23-1.12-.35-.04-.01-.09-.03-.13-.04-.48-.15-.96-.3-1.45-.45-.06-.02-.13-.04-.19-.06-2.5-.76-5-1.51-7.52-2.23h0c-.91-.26-1.82-.52-2.74-.78-.03,0-.08-.02-.11-.03-.8-.23-1.6-.45-2.4-.67-.08-.02-.15-.04-.22-.06-206.12-57.07-470.38,6.62-596.91,145.97C26.73,379.37,3.73,432.33,3.72,485.01c0,3.79.12,7.58.36,11.37.42,4.39.88,8.81,1.33,13.31,2.81,16.34,4.53,26.3,6.15,34.38,1.91,8.26,4.45,17.89,8.58,33.52,4.48,13.44,7.27,21.81,9.54,28.21,2.51,6.41,5.83,14.42,11.1,27.11,5.39,11.12,8.81,18.16,11.45,23.43,2.84,5.23,6.61,11.94,12.49,22.4,0,0,0,0,0,0,5.96,9.39,9.78,15.42,12.67,19.87,3.06,4.4,7.15,10.16,13.49,19.06,6.46,8.18,10.63,13.45,13.76,17.34,3.26,3.8,7.64,8.83,14.41,16.58,6.99,7.26,11.51,11.97,14.91,15.43,3.49,3.36,8.23,7.84,15.54,14.75,7.63,6.54,12.59,10.8,16.31,13.94,3.83,3.04,9.04,7.09,17.1,13.36,8.54,5.99,14.09,9.89,18.29,12.77,4.29,2.76,10.11,6.42,19.17,12.11,9.85,5.5,16.21,9.05,21.09,11.69,4.94,2.47,11.61,5.73,22.08,10.82,11.67,4.9,19.14,8.04,24.98,10.38,5.88,2.14,13.72,4.86,26.18,9.18.02,0,.04.01.06.02,13.97,3.93,22.72,6.38,29.74,8.19,7.02,1.57,16,3.38,30.46,6.29,16.19,2.19,26.14,3.53,34.66,4.41Z"/>
        <path class="cls-1" d="M283.5,866.23c-.27-.11-.55-.22-.83-.33l-1.06-.42c-24.98-10.04-49.84-23.13-73.88-38.9l-3.2-2.1h.05c-23.57-15.73-46.07-33.87-66.91-53.95l-.28-.27v-.02s-.19-.17-.19-.17c-21.42-20.69-40.71-43.06-57.34-66.5l-.15-.31,1.04-.59c16.62,23.42,35.9,45.79,57.31,66.47l.28.27v.02s.2.17.2.17c21.6,20.81,44.98,39.54,69.48,55.67l.55.36c24.27,15.92,49.35,29.1,74.57,39.17l.81.32s0,0,0,0l-.44,1.12ZM79.48,703.04c-11.03-15.6-20.85-31.65-29.19-47.71l-.41-.79c-.19-.36-.37-.72-.56-1.08h0s0,0,0,0l1.07-.55.56,1.09c8.39,16.22,18.28,32.41,29.41,48.16l.12.24-1.01.66Z"/>
        <path class="cls-1" d="M407.21,895.97l-1.39-.13c-.87-.09-1.75-.18-2.62-.27l.12-1.19.5.05c1.16.13,2.32.25,3.46.36h.04s-.11,1.2-.11,1.2ZM403.08,895.54l-.52-.05c-20.72-2.3-42.41-6.99-64.49-13.92-8.44-2.65-17-5.66-25.44-8.93l-3.34-1.3h.04c-29.18-11.59-58.2-26.8-86.29-45.23l-1.13-.74h0c-27.93-18.43-54.58-39.8-79.2-63.52l-.37-.36.04-.05-.21-.12c-24.28-23.46-46.18-48.8-65.09-75.34h0s-1.07-1.5-1.07-1.5c-18.43-26.06-33.69-52.84-45.39-79.68l.02.13-1.92-4.54c-9.22-21.87-16.03-43.72-20.23-64.93l-.28-1.43,1.18-.23h0c4.18,21.47,11.04,43.58,20.37,65.72l.27.63c11.89,28.06,27.69,56.11,46.96,83.36l.12.17v.03s.31.41.31.41c19.05,26.85,41.15,52.48,65.69,76.19l.55.53c24.75,23.85,51.55,45.31,79.64,63.8l.75.5c28.86,18.93,58.7,34.45,88.69,46.14l.69.27c8.45,3.27,16.99,6.27,25.4,8.92,22.03,6.92,43.68,11.6,64.36,13.9l-.12,1.19ZM142.56,760.87l.03.02-.03-.02Z"/>
        <path class="cls-1" d="M474.77,896.25c-10.48,0-21.22-.6-32.16-1.79l-4.6-.5.12-.02c-21.79-2.68-44.51-7.71-67.59-14.97-9.33-2.93-18.81-6.26-28.16-9.89l-1.73-.67h0c-32.95-12.93-65.73-30.02-97.44-50.83l-.82-.54h0c-31.07-20.46-60.7-44.21-88.08-70.59l-.61-.58c-27.08-26.16-51.48-54.45-72.53-84.07h0s-.69-.98-.69-.98c-21.04-29.75-38.35-60.36-51.45-91h0s-.88-2.08-.88-2.08c-12.86-30.51-21.42-60.77-25.43-89.93-2.05-14.9-2.9-29.5-2.52-43.38l.04-1.28,1.2.04c-.43,14.04.41,28.82,2.49,43.92v.05c4.01,29.07,12.55,59.24,25.38,89.67l.29.7c13.16,31.06,30.65,62.1,51.97,92.26l.47.66c21.08,29.72,45.54,58.08,72.69,84.31l.6.58c27.4,26.39,57.05,50.15,88.13,70.61l.73.48c31.97,20.97,65.03,38.18,98.26,51.12l.76.3c9.33,3.62,18.79,6.94,28.11,9.87,24.37,7.66,48.34,12.84,71.22,15.38l.69.08c22.64,2.46,44.4,2.37,64.68-.27l.15,1.19s-.1.01-.15.02l-1.12.15c-10.33,1.32-21.04,1.97-32.05,1.97Z"/>
        <path class="cls-1" d="M517.05,885.62c-11.25,0-22.8-.64-34.61-1.93l-2.41-.26h.02c-24.17-2.81-49.43-8.32-75.12-16.39-10.03-3.15-20.22-6.73-30.28-10.63l-1.23-.48h0c-35.65-13.93-71.12-32.4-105.42-54.91l-.72-.47h0l-.04-.02c-33.46-22.03-65.38-47.6-94.87-76l-.41-.39h0l-.25-.24c-29.21-28.21-55.52-58.73-78.2-90.68h0s-.56-.79-.56-.79c-22.81-32.26-41.55-65.46-55.68-98.68h0s-.26-.6-.26-.6c0-.02-.02-.04-.03-.06l-.32-.75c-13.41-31.8-22.46-63.34-26.94-93.8v.03s-.41-2.94-.41-2.94c-4.32-31.38-3.64-60.83,2-87.56l.15-.61h-.02c.35-1.65.73-3.29,1.12-4.91l.28-1.15h0l1.17.28c-.43,1.79-.85,3.59-1.24,5.41l-.14.57h0s0,.02,0,.03h.02c-5.62,26.61-6.29,55.96-1.99,87.22,4.3,31.28,13.49,63.74,27.29,96.48l.32.75c14.15,33.39,32.95,66.77,55.89,99.2l.51.71c22.66,31.95,48.96,62.45,78.16,90.66l.65.63c29.46,28.38,61.34,53.92,94.77,75.92l.75.49c34.39,22.56,69.95,41.07,105.69,55l.82.32c10.04,3.89,20.21,7.46,30.23,10.61,26.22,8.24,51.98,13.8,76.59,16.54l.74.08c32.95,3.59,63.86,2.15,91.85-4.28l.02.06.53-.19c7.61-1.77,15.02-3.91,22.08-6.38l.4,1.13c-.06.02-.12.04-.18.06l-.95.33c-6.94,2.4-14.2,4.5-21.6,6.21l-.02-.07-.6.21c-18.06,4.15-37.33,6.22-57.57,6.22ZM11.79,347.49h-.06s.06,0,.06,0ZM11.48,347.42h.02s-.02,0-.02,0Z"/>
        <path class="cls-1" d="M558.34,865.08c-11.8,0-23.91-.67-36.3-2.02l-1.68-.18h0c-25.6-2.91-52.37-8.72-79.61-17.28-10.53-3.31-21.22-7.06-31.76-11.15l-1.01-.39h0c-37.48-14.62-74.78-34.03-110.84-57.7l-.79-.52c-35.09-23.1-68.57-49.91-99.49-79.71l-.23-.22h0s-.45-.44-.45-.44c-30.66-29.61-58.27-61.64-82.06-95.19l-.04-.06h0s-.49-.69-.49-.69c-24.09-34.06-43.83-69.11-58.7-104.19l-.12-.28.02-.04-.24-.47c-14.23-33.76-23.79-67.24-28.42-99.55h0s-.28-2.07-.28-2.07c-4.28-31.22-3.84-60.62,1.29-87.48l-.1.22,1.08-5.02c2.02-9.41,4.64-18.53,7.84-27.26,1.74-5.32,3.21-8.57,6.02-14.56.06-.14.13-.28.19-.42l.49-1.04,1.09.51c-.23.5-.46.98-.68,1.45-2.17,4.67-4.16,9.49-5.97,14.42-1.72,5.26-3.71,12.55-7.53,26.58l-.13.63c-5.9,27.9-6.6,58.66-2.09,91.45,4.52,32.8,14.14,66.84,28.62,101.17l.33.79c14.84,35.02,34.55,70.01,58.6,104.02l.04.06h0s.49.69.49.69c23.76,33.5,51.34,65.48,81.96,95.06l.23.22h0s.45.43.45.43c30.88,29.75,64.32,56.54,99.37,79.61l.79.52c36.05,23.66,73.34,43.06,110.82,57.66l.86.33c10.52,4.08,21.19,7.82,31.7,11.13,27.49,8.64,54.5,14.47,80.31,17.34l.78.09c34.55,3.76,66.96,2.25,96.32-4.48l.62-.14c30.11-8.36,30.64-8.63,58.57-23.12l.58,1.05-1.01.6c-22.72,12.75-29.56,14.71-58.36,22.96l-4.33,1.24.7-.43c-18.09,3.91-37.3,5.87-57.43,5.87ZM54.6,494.02l.52.3-.52-.3Z"/>
        <path class="cls-1" d="M597.95,834.45c-12.08,0-24.49-.69-37.17-2.07l-1.29-.14h0c-26.34-2.97-53.92-8.94-81.96-17.75-10.78-3.39-21.73-7.23-32.53-11.42l-.88-.34c-38.44-14.98-76.69-34.88-113.68-59.15l-.81-.53c-35.94-23.66-70.23-51.13-101.9-81.64l-.7-.67c-31.4-30.33-59.68-63.13-84.05-97.49l-.09-.13h0s-.45-.64-.45-.64c-24.64-34.84-44.85-70.71-60.07-106.6l-.02.02-.38-.96c-19.3-48.41-22.34-64.66-29.13-102.5l-.05.06-.24-1.66h0c-4.5-32.85-3.9-63.72,1.78-91.82l-.02.03.57-2.68c5.99-27.9,16.98-52.82,32.69-74.06l.69-.93.98.7c-20.96,30.7-24.42,43.38-32.77,74.02l-.13.61c-7.18,40.44-5.6,57.13-2.14,93.67,7.75,47.48,14.06,63.91,29.31,103.6l.34.79c15.19,35.85,35.38,71.68,60,106.51l.54.77c24.33,34.3,52.57,67.05,83.92,97.34l.7.67c31.63,30.47,65.86,57.89,101.75,81.51l.81.53c36.92,24.23,75.1,44.09,113.47,59.05l.88.34c10.78,4.18,21.7,8.01,32.46,11.39,28.14,8.85,55.81,14.82,82.23,17.76l.52.06h0s.28.03.28.03c35.38,3.85,68.56,2.31,98.63-4.59l.66-.15c29.43-6.84,55.4-18.71,77.2-35.28l.03.04.41-.37c.21-.16.41-.32.62-.48l9.59-7.96c.19-.17.37-.33.56-.5l.32-.29s0,0,.02-.01l.8.89c-.12.11-.24.22-.36.33l-.55.49c-3.08,2.75-6.3,5.42-9.59,7.96l-1.14.95-.03-.04-.47.42c-21.94,16.67-48.06,28.61-77.65,35.49l-2.24.52h.02c-18.95,4.2-39.12,6.32-60.27,6.32Z"/>
        <path class="cls-1" d="M634.82,793.92c-12.09,0-24.49-.69-37.18-2.07l-1.08-.12h0c-26.42-2.96-54.07-8.94-82.19-17.78-10.79-3.39-21.73-7.23-32.53-11.42l-.88-.34c-38.45-14.98-76.7-34.89-113.69-59.16l-.81-.53c-35.95-23.66-70.24-51.13-101.92-81.65l-.7-.67c-31.4-30.33-59.68-63.14-84.06-97.51l-.54-.77c-24.67-34.88-44.9-70.8-60.13-106.73h0s-.34-.81-.34-.81c-14.69-34.85-24.52-69.41-29.22-102.74h0s-.2-1.46-.2-1.46c-4.53-33.13-3.87-64.26,1.95-92.56h0s.4-1.84.4-1.84c6.27-29.23,18.02-55.15,34.93-77.03l.44-.41-.07-.07c6.21-7.98,13.18-15.48,20.7-22.28l.43-.39c.14-.13.28-.26.43-.39l.8.89-.4.36c-7.44,6.74-14.33,14.16-20.48,22.06l-.44.41.07.07c-16.79,21.73-28.47,47.49-34.7,76.54l-.14.66c-6.04,28.56-6.76,60.06-2.14,93.63,4.62,33.58,14.48,68.42,29.3,103.58l.34.81c15.19,35.85,35.38,71.68,59.99,106.49l.54.77c24.33,34.3,52.56,67.04,83.91,97.32l.7.67c31.62,30.46,65.85,57.88,101.73,81.5l.81.53c36.92,24.22,75.09,44.08,113.45,59.04l.88.34c10.78,4.18,21.69,8.01,32.45,11.39,28.14,8.84,55.8,14.82,82.22,17.75l.8.09c35.37,3.85,68.55,2.31,98.61-4.59l.66-.15c29.42-6.84,55.39-18.71,77.19-35.28l.48-.37c12.87-9.85,24.26-21.38,33.86-34.28l.34-.46.97.71c-.11.15-.23.31-.34.46l-.34.46c-9.68,13.03-21.18,24.68-34.18,34.63l-3.43,2.63.11-.14c-21.34,15.57-46.49,26.8-74.82,33.38l-1.62.38h0c-19.13,4.3-39.51,6.46-60.9,6.46Z"/>
        <path class="cls-1" d="M666.57,746.13c-11.81,0-23.92-.67-36.31-2.02l-.93-.1c-25.83-2.88-52.88-8.73-80.39-17.37-10.53-3.31-21.22-7.06-31.77-11.15l-.42-.16h0s-.44-.17-.44-.17c-37.55-14.63-74.91-34.07-111.04-57.78l-.55-.36h0s-.24-.16-.24-.16c-35.11-23.11-68.6-49.94-99.54-79.74l-.68-.66c-30.67-29.63-58.3-61.67-82.1-95.23l-.53-.75c-24.1-34.07-43.85-69.15-58.72-104.24l-.02-.06h0s-.31-.73-.31-.73c-14.37-34.09-23.98-67.89-28.56-100.49h0s-.13-.98-.13-.98c0-.03,0-.07-.01-.1l-.04-.26c-4.44-32.48-3.77-63,1.99-90.73h0s.3-1.42.3-1.42c5.93-27.64,16.88-52.24,32.55-73.17l-.07.04,2.01-2.58c13.22-16.99,29.56-31.33,48.57-42.62l.14-.08c.28-.17.56-.34.84-.5h.01s0,0,0,0l.61,1.03h0s0,0,0,0l-.85.5c-18.69,11.17-34.76,25.31-47.78,42.05l-.36.47c-16.39,21.22-27.79,46.36-33.88,74.72l-.14.64c-5.9,27.89-6.6,58.64-2.09,91.41,4.51,32.78,14.14,66.81,28.6,101.12l.33.79c14.83,35,34.54,69.98,58.57,103.97l.53.75c23.75,33.49,51.31,65.45,81.92,95.02l.68.66c30.87,29.74,64.29,56.51,99.32,79.57l.79.52c36.04,23.65,73.31,43.04,110.77,57.64l.86.33c10.52,4.08,21.18,7.82,31.68,11.12,27.47,8.63,54.47,14.47,80.27,17.33l.78.09c34.54,3.76,66.93,2.25,96.27-4.48l.64-.15c28.72-6.67,54.08-18.26,75.36-34.44l.47-.36c21.26-16.28,38.06-36.88,49.91-61.23h0s.26-.54.26-.54c.19-.4.38-.79.57-1.19l.4-.84,1.09.51s0,0,0,0h0c-.13.28-.27.57-.4.85l-.09.18c-.25.54-.51,1.08-.77,1.61h0s-.26.55-.26.55c-11.94,24.53-28.86,45.28-50.29,61.68l-2.01,1.54.02-.04c-21.11,15.69-46.11,26.97-74.33,33.53l-1.28.3h0c-18.77,4.25-38.78,6.38-59.77,6.38Z"/>
        <path class="cls-1" d="M692.7,692.55c-11.26,0-22.82-.64-34.64-1.93l-.32-.03h0s-.51-.06-.51-.06c-24.66-2.75-50.48-8.32-76.74-16.58-10.05-3.16-20.24-6.74-30.3-10.64l-.82-.32c-35.81-13.96-71.45-32.5-105.91-55.11l-.75-.5c-33.49-22.04-65.43-47.63-94.94-76.06l-.43-.41h0s-.22-.22-.22-.22c-29.25-28.26-55.6-58.82-78.31-90.83l-.51-.71c-22.99-32.5-41.83-65.96-56.01-99.43l-.03-.08h0s-.28-.67-.28-.67c-13.72-32.54-22.89-64.81-27.25-95.92h0s-.17-1.27-.17-1.27c-4.23-31.04-3.57-60.19,1.95-86.67h0s.25-1.16.25-1.16c5.73-26.68,16.35-50.4,31.59-70.52h-.03s1.33-1.7,1.33-1.7c15.59-20.04,35.58-36.09,59.41-47.71l.55-.2-.02-.06c6.5-3.15,13.36-5.99,20.39-8.45l.22-.08c.3-.11.6-.21.91-.32h0s0,0,0,0l.4,1.13-.91.32c-6.85,2.41-13.52,5.19-19.87,8.25l-.55.2.02.06c-23.64,11.53-43.48,27.45-58.94,47.33l-.35.45c-15.63,20.23-26.49,44.19-32.3,71.23l-.13.61c-5.61,26.52-6.29,55.77-2.02,86.93l.03.21c4.3,31.26,13.48,63.69,27.27,96.41l.32.75c14.14,33.37,32.93,66.72,55.84,99.12l.5.71c22.65,31.93,48.93,62.41,78.1,90.59l.65.63c29.43,28.36,61.29,53.88,94.69,75.86l.28.18h0s.47.31.47.31c34.36,22.55,69.89,41.03,105.61,54.95l.34.13h0s.48.18.48.18c10.04,3.89,20.2,7.46,30.21,10.61,26.19,8.23,51.94,13.79,76.53,16.52l.74.08c32.93,3.59,63.81,2.15,91.78-4.27l.61-.14c27.38-6.36,51.56-17.41,71.84-32.83l.45-.34c20.27-15.52,36.28-35.16,47.58-58.37l.25-.52c5.4-11.19,9.72-23.28,12.85-35.95,0,0,0-.02,0-.03l.27-1.13s0,0,0-.01h0s1.17.28,1.17.28t0,0v.02c-.1.39-.19.78-.29,1.17-3.16,12.98-7.57,25.36-13.09,36.81l-2.6,5.38.11-.43c-11.23,21.48-26.6,39.76-45.73,54.41l-1.45,1.11v-.02c-20.23,15.15-44.23,26.02-71.36,32.32l-1.07.25h0c-17.95,4.08-37.08,6.12-57.16,6.12Z"/>
        <path class="cls-1" d="M713.11,634.3c-10.47,0-21.22-.6-32.22-1.8l-.21-.02h0s-.53-.06-.53-.06c-22.95-2.55-46.97-7.74-71.4-15.42-9.35-2.94-18.83-6.27-28.19-9.9l-.26-.1h0s-.51-.2-.51-.2c-33.31-12.98-66.46-30.23-98.51-51.26l-.7-.46c-31.15-20.5-60.86-44.3-88.3-70.74l-.61-.58c-27.21-26.29-51.72-54.71-72.84-84.48l-.47-.66c-21.38-30.23-38.91-61.34-52.1-92.48l-.21-.49h0l-.09-.21c-12.76-30.28-21.29-60.3-25.36-89.26h0s-.17-1.23-.17-1.23c-3.93-28.87-3.31-56,1.84-80.63h0s.21-.99.21-.99c5.36-24.95,15.32-47.12,29.61-65.9h-.01s1-1.28,1-1.28c13.86-17.81,31.46-32.24,52.34-42.92l-.14.02,3.56-1.72c18.21-8.81,38.68-14.75,60.85-17.65.46-.06.92-.12,1.39-.18h.02s0,0,0,0l.15,1.19-1.26.16c-.05,0-.11.01-.16.02-21.78,2.91-41.9,8.78-59.81,17.44l-.49.24c-21.98,10.72-40.41,25.52-54.79,43.99l-.32.41c-14.52,18.8-24.62,41.08-30.02,66.21l-.12.57c-5.23,24.71-5.85,51.97-1.85,81,4,29.06,12.53,59.21,25.35,89.62l.29.7c13.14,31.02,30.61,62.03,51.91,92.15l.47.66c21.05,29.68,45.48,58.01,72.61,84.22l.6.58c27.36,26.36,56.98,50.09,88.03,70.53l.7.46c31.94,20.96,64.98,38.15,98.18,51.09l.76.3c9.33,3.62,18.78,6.93,28.08,9.86,24.35,7.65,48.28,12.82,71.14,15.36l.69.08c30.61,3.33,59.31,2,85.32-3.97l.57-.13c25.45-5.92,47.92-16.18,66.78-30.52l.42-.32c18.84-14.42,33.72-32.67,44.23-54.25l.23-.48c10.69-22.15,16.63-47.47,17.64-75.26l1.2.04s0,.01,0,.02l-.02.57c-1.02,27.99-7.01,53.5-17.78,75.82l-1.33,2.76v-.07c-10.52,20.81-25.16,38.48-43.53,52.55l-1.14.87h0c-18.87,14.16-41.27,24.33-66.59,30.22l-.92.21h0c-16.72,3.8-34.54,5.71-53.25,5.71ZM897.67,465.6l-1.2-.04.08-2.47h0s1.2.03,1.2.03c-.02.63-.03,1.26-.06,1.88l-.02.59Z"/>
        <path class="cls-1" d="M727.66,572.5c-9.47,0-19.19-.54-29.13-1.62h-.1s0-.01,0-.01l-.58-.06c-20.74-2.31-42.45-7-64.54-13.94-8.45-2.66-17.02-5.67-25.48-8.94l-.58-.22h0s-.11-.05-.11-.05c-30.11-11.73-60.07-27.32-89.04-46.33l-.5-.33h0l-.13-.09c-28.16-18.53-55.01-40.05-79.82-63.94l-.55-.53c-24.59-23.76-46.74-49.45-65.84-76.36l-.34-.49h0s-.08-.11-.08-.11c-19.32-27.33-35.17-55.45-47.09-83.59l-.02-.06h0s-.25-.58-.25-.58c-11.54-27.37-19.25-54.5-22.92-80.68h0s-.17-1.2-.17-1.2h0c-3.54-26.08-2.97-50.58,1.68-72.83h0l.18-.86c4.85-22.61,13.89-42.7,26.87-59.71h0s.81-1.04.81-1.04c12.74-16.37,28.97-29.58,48.26-39.28h-.04s2.2-1.07,2.2-1.07c20.23-9.78,43.37-15.61,68.78-17.32l.57.04v-.08c12.91-.84,26.47-.6,40.33.71.68.06,1.37.13,2.06.2h0s0,0,0,0l-.12,1.2-1.4-.13c-.22-.02-.44-.04-.65-.06-13.6-1.25-26.9-1.48-39.57-.66l-.57-.04v.08c-25.22,1.69-48.18,7.47-68.24,17.17l-.44.21c-19.85,9.68-36.49,23.04-49.48,39.73l-.29.37c-13.12,16.98-22.24,37.1-27.11,59.79l-.11.51c-4.72,22.32-5.28,46.93-1.67,73.16,3.61,26.24,11.32,53.48,22.9,80.95l.27.63c11.87,28.02,27.65,56.02,46.89,83.24l.42.6c19.02,26.81,41.09,52.41,65.59,76.07l.54.53c24.72,23.81,51.47,45.25,79.52,63.71l.63.41c28.86,18.93,58.69,34.46,88.68,46.15l.69.27c8.42,3.27,16.95,6.26,25.37,8.91,21.99,6.91,43.61,11.58,64.26,13.88l.63.07c27.64,3.01,53.57,1.8,77.06-3.59l.52-.12c22.99-5.34,43.28-14.62,60.3-27.56l.38-.29c17.01-13.03,30.45-29.51,39.94-48.99l.21-.44c9.66-20,15.02-42.87,15.93-67.97l.02-.67c.43-12.85-.32-26.4-2.23-40.25-.64-4.66-1.42-9.4-2.32-14.12-.04-.23-.09-.46-.13-.69l-.28-1.44,1.18-.23s0,0,0,0h0c.14.71.27,1.4.4,2.09.95,4.92,1.77,9.89,2.44,14.76,1.92,13.98,2.68,27.64,2.24,40.62l-.2,5.86-.06-.35c-1.41,23.37-6.73,44.75-15.84,63.62l-.91,1.88v-.03c-9.54,19.07-22.88,35.24-39.65,48.08l-.94.72h0c-17.08,12.84-37.36,22.06-60.29,27.39l-.81.19h0c-15.12,3.44-31.23,5.17-48.15,5.17Z"/>
        <path class="cls-1" d="M736.24,508.26c-8.26,0-16.73-.47-25.4-1.41l-.65-.07c-18.09-2.01-37.03-6.11-56.29-12.16-7.37-2.32-14.85-4.94-22.24-7.81h-.03s0,0,0,0l-.58-.22c-26.28-10.24-52.42-23.85-77.71-40.43l-.55-.36c-24.57-16.17-48.01-34.95-69.66-55.8l-.05-.05h0s-.43-.41-.43-.41c-21.46-20.73-40.79-43.15-57.45-66.64l-.37-.52c-16.86-23.85-30.69-48.39-41.1-72.95h0s0-.01,0-.01l-.23-.54c-10.06-23.88-16.79-47.55-20-70.39l-.09-.64c0-.06-.02-.13-.03-.19l-.05-.37h0c-3.07-22.72-2.57-44.06,1.48-63.45h0l.16-.76c4.24-19.76,12.14-37.31,23.48-52.16h0s.68-.87.68-.87c11.19-14.38,25.46-25.96,42.43-34.45h-.02s1.61-.78,1.61-.78c16.92-8.18,36.17-13.19,57.27-14.91l-.07-.02,3.35-.22c22.83-1.48,47.44.87,73.17,6.98l.49.18-.35,1.15c-25.56-6.07-50-8.4-72.67-6.93h-.11s0,0,0,0l-.39.03c-21.99,1.48-42,6.51-59.48,14.97l-.39.19c-17.3,8.43-31.81,20.08-43.12,34.63l-.25.32c-11.43,14.8-19.38,32.33-23.63,52.11l-.1.45c-4.1,19.4-4.6,40.79-1.48,63.59l.03.19c3.15,22.88,9.87,46.63,19.96,70.58l.23.55c10.35,24.43,24.11,48.85,40.89,72.58l.37.52c16.58,23.38,35.82,45.7,57.19,66.33l.48.46c21.55,20.76,44.88,39.45,69.34,55.55l.55.36c25.16,16.51,51.18,30.05,77.33,40.24l.6.23c7.35,2.85,14.79,5.46,22.12,7.76,19.17,6.03,38.02,10.1,56.03,12.1l.54.06c24.11,2.62,46.7,1.57,67.18-3.13l.45-.1c20.04-4.66,37.72-12.74,52.56-24.02l.33-.25c14.83-11.35,26.54-25.72,34.81-42.7l.09-.18h0s.1-.21.1-.21c8.42-17.44,13.09-37.37,13.89-59.24l.02-.5c.38-11.23-.27-23.07-1.94-35.18-1.67-12.11-4.36-24.59-8.01-37.1l1.12-.43.24.52c3.67,12.59,6.39,25.16,8.06,37.35,1.68,12.2,2.34,24.13,1.95,35.45l-.1,2.93-.02-.05c-1.05,21.15-5.73,40.48-13.93,57.47l-.69,1.44v-.02c-8.34,16.73-20.02,30.92-34.72,42.18l-.8.61h0c-14.91,11.21-32.61,19.26-52.63,23.92h0s-.75.17-.75.17h0c-13.19,3-27.26,4.51-42.02,4.51ZM870.61,302.17l-.24-.51c-5.44-18.52-13.05-37.4-22.62-56.17-.07-.14-.15-.29-.22-.43l-.97-1.88,1.07-.55h0c.4.79.8,1.56,1.19,2.33,9.69,18.96,17.4,38.06,22.9,56.79l-1.12.43ZM615.87,33.59h0s-1.88-.75-1.88-.75c-.24-.09-.47-.19-.71-.28-7.91-3.11-15.9-5.94-23.78-8.41-7.34-2.31-14.7-4.35-21.88-6.07l-.49-.18.35-1.15c7.23,1.73,14.63,3.78,22.01,6.1,8.03,2.52,16.17,5.41,24.22,8.58.87.34,1.74.69,2.61,1.04l-.45,1.11Z"/>
        <path class="cls-1" d="M738.72,442.73c-6.83,0-13.84-.39-21.01-1.16h0s-.74-.08-.74-.08c-15.05-1.68-30.81-5.09-46.84-10.12-6.11-1.92-12.3-4.09-18.41-6.46h0s-.62-.24-.62-.24c-21.86-8.52-43.6-19.83-64.63-33.62h0s-.55-.36-.55-.36c-20.44-13.46-39.94-29.08-57.96-46.43l-.47-.45h0c-17.85-17.25-33.93-35.9-47.79-55.44h0s-.39-.55-.39-.55h0c-14.01-19.82-25.49-40.21-34.14-60.62h0s-.27-.65-.27-.65c-8.34-19.82-13.92-39.48-16.59-58.44h-.02s-.15-1.19-.15-1.19h.02c-2.89-26.21-1.57-34.64,1.29-52.94l.08-.54h.03c3.54-16.4,10.1-30.97,19.52-43.31h0s.6-.78.6-.78c9.34-11.99,21.24-21.64,35.41-28.71h-.01s1.27-.62,1.27-.62c14.26-6.9,30.52-11.09,48.34-12.47h-.02s2.13-.15,2.13-.15c18.28-1.18,37.95.58,58.5,5.24l-.04-.03,2.98.71c6.02,1.44,12.18,3.15,18.33,5.08,15.16,4.77,30.48,10.97,45.58,18.45l-.04-.04,3.19,1.62c21.39,10.87,42.3,24.28,62.15,39.85l.44.35c19.45,15.31,37.59,32.45,53.89,50.96l.37.41c.05.06.11.12.16.19l1.09,1.24h-.01c15.8,18.15,29.58,37.29,40.95,56.88l.26.45s.02.04.04.06l1.49,2.58-.04-.04c11.19,19.76,19.78,39.69,25.53,59.29l.14.46s0,.01,0,.02l.67,2.29-.03-.03c2.73,9.72,4.77,19.41,6.06,28.83,1.4,10.17,1.95,20.1,1.63,29.53l-.07,1.97v-.02c-.84,17.8-4.75,34.06-11.64,48.33l-.56,1.16h0c-6.94,13.93-16.66,25.75-28.9,35.13h0s-.75.57-.75.57h0c-12.38,9.31-27.08,16-43.7,19.88h0s-.8.19-.8.19h0c-10.98,2.49-22.68,3.75-34.96,3.75ZM717.67,439.5h.06c20.04,2.19,38.83,1.31,55.86-2.59l.37-.09c16.66-3.87,31.36-10.59,43.69-19.97l.27-.21c12.32-9.43,22.06-21.37,28.93-35.49l.15-.32c7-14.5,10.88-31.07,11.54-49.25v-.41c.33-9.34-.21-19.18-1.6-29.25-1.39-10.07-3.63-20.45-6.66-30.86l-.13-.46c-5.97-20.31-15-40.99-26.84-61.46l-.26-.45c-11.6-19.99-25.71-39.49-41.94-57.96l-.36-.41c-16.21-18.4-34.24-35.45-53.59-50.67l-.44-.34c-19.73-15.48-40.52-28.81-61.78-39.62l-.48-.24c-15.86-8.03-31.98-14.64-47.94-19.66-6.1-1.92-12.22-3.61-18.2-5.05l-.48-.12c-21.26-5.04-41.58-6.98-60.43-5.77l-.41.03c-18.28,1.23-34.92,5.42-49.45,12.44l-.32.15c-14.38,7.01-26.44,16.69-35.84,28.78l-.21.27c-9.48,12.27-16.08,26.81-19.61,43.21l-.1.48c-3.42,16.17-3.83,34.01-1.21,53.03v.07c2.63,19,8.21,38.73,16.6,58.63l.19.46c8.61,20.31,20.04,40.62,33.99,60.34l.32.46c13.79,19.44,29.8,38.01,47.57,55.17l.4.38c17.93,17.27,37.33,32.82,57.68,46.21l.46.3c20.93,13.73,42.57,24.99,64.31,33.47l.5.19c6.11,2.37,12.3,4.54,18.4,6.46,15.95,5.01,31.62,8.4,46.59,10.06l.39.04Z"/>
        <path class="cls-1" d="M734.99,377c-5.24,0-10.63-.29-16.13-.88h0s-.85-.09-.85-.09c-11.67-1.31-23.89-3.95-36.31-7.86-4.68-1.47-9.43-3.14-14.12-4.95h0s-.26-.1-.26-.1c0,0,0,0,0,0l-.48-.19c-16.9-6.6-33.72-15.34-49.99-26h0s-.65-.43-.65-.43c-15.81-10.42-30.9-22.5-44.84-35.92h0s-.55-.54-.55-.54c-13.8-13.35-26.24-27.77-36.96-42.88h0s-.06-.08-.06-.08c0,0,0-.01-.01-.02l-.39-.55h0c-10.84-15.36-19.74-31.16-26.44-46.98l-.28-.65h0c-6.43-15.31-10.74-30.5-12.8-45.14h0l-.07-.53s0-.04,0-.05l-.08-.62h0c-1.94-14.55-1.61-28.22.98-40.66h0s.19-.88.19-.88c2.75-12.65,7.83-23.89,15.09-33.44h0s.61-.79.61-.79h0c7.23-9.25,16.44-16.71,27.38-22.19h0s.79-.39.79-.39c0,0,0,0,0,0l.28-.14h0c11.1-5.36,23.75-8.62,37.62-9.69h-.01s1.58-.11,1.58-.11c14.35-.93,29.81.48,45.94,4.19h0s1.8.42,1.8.42c4.68,1.12,9.47,2.45,14.24,3.95,12.11,3.81,24.34,8.79,36.39,14.82h0s.93.47.93.47c.06.03.11.06.17.08l.38.19c16.48,8.38,32.6,18.7,47.92,30.68h0s.7.55.7.55c15.11,11.89,29.19,25.21,41.86,39.58l.71.8h0c12.5,14.29,23.38,29.36,32.35,44.81l.87,1.5h0c8.94,15.63,15.77,31.41,20.33,46.93l.52,1.77h-.01c2.17,7.67,3.79,15.32,4.82,22.77,1.09,7.9,1.51,15.62,1.27,22.95v.08s0,0,0,0v.24s-.01.07-.01.11l-.04,1.08h0c-.64,13.82-3.67,26.44-9.02,37.53l-.02.05s0,0,0,0l-.47.98h0c-5.37,10.76-12.88,19.89-22.32,27.16h0s-.77.59-.77.59h0c-9.57,7.18-20.91,12.34-33.73,15.36h0s-.88.2-.88.2h0c-8.51,1.93-17.58,2.89-27.09,2.89ZM718.61,374.05h.03c15.52,1.69,30.08,1.01,43.27-2.01l.29-.07c12.9-3,24.28-8.2,33.83-15.46l.21-.16c9.54-7.3,17.07-16.55,22.39-27.47l.15-.31c5.4-11.21,8.4-24.02,8.91-38.08v-.32c.26-7.24-.16-14.86-1.24-22.66-1.07-7.8-2.81-15.85-5.16-23.91l-.1-.36c-4.63-15.74-11.62-31.77-20.8-47.63l-.2-.35c-8.99-15.5-19.93-30.61-32.51-44.93l-.28-.32c-12.57-14.27-26.55-27.49-41.54-39.28l-.32-.25h0s-.02-.02-.02-.02c-15.3-12-31.41-22.33-47.89-30.71l-.37-.19c-12.29-6.22-24.79-11.35-37.15-15.24-4.72-1.49-9.47-2.8-14.1-3.91l-.37-.09c-16.47-3.91-32.23-5.41-46.82-4.47l-.32.02c-14.16.95-27.04,4.19-38.3,9.64l-.25.12c-11.13,5.43-20.46,12.92-27.73,22.26l-.17.22c-7.34,9.5-12.45,20.76-15.19,33.46l-.08.36c-2.64,12.5-2.96,26.28-.95,40.97v.1c2.04,14.74,6.37,30.04,12.88,45.48l.18.44c6.66,15.71,15.51,31.41,26.29,46.66l.27.38c10.69,15.07,23.1,29.46,36.87,42.77l.31.3c13.9,13.39,28.94,25.44,44.71,35.82l.36.23c16.22,10.64,32.99,19.37,49.85,25.94l.39.15c4.74,1.84,9.54,3.52,14.26,5.01,12.36,3.88,24.51,6.51,36.11,7.8l.32.04Z"/>
        <path class="cls-1" d="M724.92,312.21c-3.52,0-7.13-.19-10.82-.58h0s-.76-.08-.76-.08c-.02,0-.05,0-.07,0l-.15-.02c-8-.9-16.36-2.72-24.87-5.39-3.14-.99-6.32-2.1-9.46-3.31h0s-.88-.34-.88-.34c-11.52-4.51-22.98-10.46-34.07-17.71h0s-.77-.5-.77-.5h0c-10.78-7.11-21.06-15.35-30.57-24.49h0s-.65-.63-.65-.63h0c-9.4-9.11-17.88-18.94-25.2-29.24l-.02-.03c-.04-.05-.07-.1-.11-.16l-.41-.58h0c-7.35-10.44-13.39-21.18-17.96-31.93l-.02-.05s-.04-.09-.06-.14l-.3-.71h0c-4.35-10.41-7.27-20.73-8.68-30.69h-.01s-.15-1.22-.15-1.22h.02c-1.47-13.55-.8-18.11.68-27.59h-.02s.17-.99.17-.99h.04c1.9-8.55,5.34-16.18,10.25-22.67h0s.64-.82.64-.82h0c4.93-6.26,11.18-11.32,18.59-15.06h0s1.05-.51,1.05-.51h0c7.57-3.63,16.18-5.85,25.6-6.6h0s1.32-.09,1.32-.09c9.83-.63,20.41.33,31.45,2.86h0s1.35.31,1.35.31c3.22.77,6.52,1.69,9.8,2.72,8.32,2.61,16.72,6.04,24.99,10.17h0s1.06.54,1.06.54c11.42,5.81,22.58,12.97,33.18,21.28l.37.29c10.3,8.12,19.91,17.21,28.56,27.02h0l.64.73h0c8.56,9.8,16.02,20.14,22.17,30.73l.63,1.08h0c6.13,10.73,10.82,21.57,13.95,32.23h0s.07.25.07.25c0,.02.01.05.02.07l.3,1.01h0c1.48,5.24,2.59,10.47,3.29,15.56.74,5.42,1.04,10.71.87,15.73h0s-.01.3-.01.3c0,.05,0,.1,0,.15l-.03.85h0c-.46,9.39-2.52,17.97-6.14,25.53h0s-.07.13-.07.13c0,.01-.01.03-.02.04l-.4.84h0c-3.67,7.28-8.76,13.48-15.15,18.43h0s-.81.62-.81.62h0c-6.51,4.85-14.2,8.36-22.87,10.44h0s-.98.23-.98.23h0c-5.82,1.31-12.03,1.96-18.53,1.96ZM713.42,309.54l.2.02c10.63,1.16,20.58.69,29.59-1.37l.2-.05c8.81-2.05,16.59-5.6,23.12-10.56l.15-.11c6.51-4.99,11.66-11.3,15.29-18.76l.14-.3c3.66-7.64,5.7-16.37,6.05-25.94v-.27c.17-4.94-.11-10.13-.85-15.45-.73-5.34-1.92-10.85-3.53-16.36l-.07-.24c-3.17-10.78-7.96-21.75-14.24-32.61l-.14-.24c-6.16-10.61-13.65-20.96-22.26-30.77l-.29-.33c-8.56-9.71-18.08-18.71-28.29-26.74l-.29-.23c-10.48-8.22-21.51-15.3-32.79-21.03l-.26-.13c-8.41-4.26-16.97-7.77-25.44-10.43-3.2-1.01-6.41-1.9-9.55-2.65l-.36-.09c-11.27-2.68-22.06-3.71-32.04-3.06l-.26.02c-9.67.66-18.46,2.87-26.14,6.59l-.17.08c-7.6,3.71-13.98,8.83-18.95,15.22l-.15.2c-5,6.49-8.48,14.18-10.34,22.86l-.04.2c-1.81,8.57-2.03,18.02-.64,28.09,1.39,10.09,4.35,20.56,8.81,31.13l.1.24c4.55,10.74,10.6,21.48,17.97,31.92l.24.34c7.32,10.32,15.82,20.18,25.25,29.29l.24.23c9.51,9.16,19.8,17.4,30.59,24.5l.24.16c11.11,7.29,22.6,13.27,34.14,17.76l.26.1c3.24,1.26,6.52,2.41,9.76,3.43,8.46,2.66,16.78,4.46,24.72,5.34h.04Z"/>
        <path class="cls-1" d="M708.39,249.47c-1.67,0-3.39-.08-5.14-.25h0s-.67-.07-.67-.07c-.02,0-.03,0-.05,0l-.42-.05c-4.07-.47-8.33-1.4-12.66-2.76-1.48-.47-2.98-.99-4.48-1.55h0s-1.04-.4-1.04-.4c-5.78-2.27-11.52-5.25-17.08-8.86h0s-.44-.29-.44-.29c-.01,0-.02-.01-.03-.02l-.42-.28c-5.41-3.58-10.57-7.72-15.36-12.3h0s-.14-.13-.14-.13c-.06-.05-.11-.11-.17-.16l-.45-.43h0c-4.7-4.58-8.95-9.52-12.64-14.68h0s-.28-.39-.28-.39c-.05-.07-.09-.13-.14-.2l-.21-.3h0c-3.65-5.23-6.67-10.6-8.97-15.98h0l-.17-.39s-.03-.07-.04-.1l-.23-.55h0c-2.13-5.17-3.57-10.3-4.29-15.25h0l-.06-.43s0-.01,0-.02l-.11-.81h0c-.59-4.86-.47-9.44.37-13.63h0s.07-.32.07-.32c0-.02,0-.04.01-.06l.15-.71h0c.98-4.19,2.68-7.95,5.08-11.17h0s.31-.4.31-.4c0-.01.02-.02.03-.04l.34-.44h0c2.46-3.06,5.54-5.55,9.16-7.42h0s1.06-.52,1.06-.52h0c3.76-1.77,8.01-2.87,12.65-3.28h0s1.06-.08,1.06-.08c0,0,.01,0,.02,0h.21s0-.01,0-.01c4.9-.29,10.17.18,15.66,1.4h0s1.1.25,1.1.25c0,0,.02,0,.03,0l.15.04c1.61.39,3.25.85,4.88,1.36,4.18,1.31,8.4,3.02,12.56,5.08h0s.87.43.87.43c.03.02.06.03.1.05l.1.05c5.67,2.9,11.21,6.44,16.48,10.54h0s.55.43.55.43c.04.03.08.06.11.09l.17.13h0c5.16,4.09,9.98,8.65,14.34,13.57h0s.72.81.72.81h0c4.32,4.98,8.09,10.22,11.21,15.6l.51.88h0c3.07,5.43,5.43,10.91,7.02,16.31l.32,1.08h-.01c.71,2.58,1.24,5.14,1.59,7.64.38,2.72.53,5.39.46,7.94h0s0,.11,0,.11c0,.04,0,.08,0,.12l-.04,1.03h-.01c-.27,4.61-1.3,8.86-3.06,12.62h0s-.5,1.04-.5,1.04h0c-1.84,3.56-4.35,6.61-7.47,9.08h0s-.47.36-.47.36c0,0,0,0,0,0l-.4.31h0c-3.23,2.36-7.02,4.1-11.26,5.16h0s-.74.18-.74.18c-.03,0-.05.01-.08.02l-.28.07h0c-2.96.65-6.1.97-9.39.97ZM702.33,247.14l.15.02c5.39.59,10.44.35,15.02-.7l.1-.02c4.46-1.04,8.4-2.83,11.69-5.34l.1-.08c3.28-2.52,5.87-5.7,7.7-9.45l.07-.14c1.85-3.84,2.88-8.24,3.06-13.06v-.2c.09-2.51-.06-5.15-.43-7.87-.37-2.65-.95-5.39-1.74-8.13l-.09-.31c-1.61-5.48-4.05-11.06-7.24-16.59l-.11-.19c-3.13-5.38-6.93-10.63-11.3-15.6l-.1-.11c-4.34-4.92-9.15-9.49-14.32-13.57l-.29-.23c-5.33-4.18-10.95-7.79-16.7-10.71l-.17-.09c-4.27-2.16-8.61-3.94-12.9-5.29-1.63-.51-3.27-.97-4.87-1.35l-.17-.04c-5.73-1.36-11.2-1.88-16.27-1.55h-.18c-4.88.35-9.31,1.47-13.19,3.34l-.15.07c-3.81,1.87-7.01,4.45-9.51,7.66l-.06.07c-2.54,3.29-4.3,7.18-5.25,11.58l-.02.1c-1.09,6.14-.85,8.69-.32,14.25.7,5.11,2.21,10.42,4.46,15.77l.07.16c2.33,5.49,5.42,10.98,9.19,16.3l.11.16c3.71,5.22,8.01,10.21,12.79,14.83l.15.14c4.84,4.66,10.08,8.86,15.57,12.48l.15.1c5.66,3.71,11.5,6.75,17.38,9.04l.14.05c1.65.64,3.32,1.23,4.97,1.74,4.29,1.35,8.51,2.26,12.54,2.71Z"/>
        <path class="cls-1" d="M11.03,354.74l-1.17-.26.29-1.32c.42-1.92.86-3.83,1.33-5.74l.15-.62c3.91-15.81,9.47-31.38,16.53-46.27l.28-.59c7.24-15.16,16.17-29.9,26.55-43.8l.42-.56c5.3-7.06,11.06-14.03,17.12-20.71,6.07-6.69,12.58-13.23,19.33-19.45l.53-.49c13.34-12.22,28.13-23.61,43.97-33.87l.62-.4c15.56-10.04,32.42-19.17,50.1-27.14l.69-.31c17.44-7.83,35.99-14.67,55.14-20.34l.75-.22c18.98-5.58,38.87-10.11,59.11-13.46l.8-.13c20.16-3.3,41.02-5.48,61.98-6.49l.83-.04c21-.98,42.46-.79,63.78.55l.84.05c21.47,1.38,43.17,3.97,64.5,7.68l.84.15c21.59,3.79,43.16,8.8,64.13,14.88l.84.24c21.32,6.23,42.41,13.69,62.69,22.18l.81.34c20.69,8.7,40.93,18.64,60.16,29.55l.38.22-.59,1.04h0s0,0,0,0l-.38-.21c-19.2-10.85-39.4-20.74-60.05-29.38l-.81-.34c-20.24-8.44-41.3-15.85-62.59-22.04l-.83-.24c-20.94-6.05-42.48-11.02-64.03-14.76l-.84-.15c-21.29-3.67-42.95-6.22-64.39-7.58l-.84-.05c-21.29-1.32-42.71-1.48-63.67-.48l-.83.04c-20.93,1.03-41.74,3.23-61.86,6.54l-.8.13c-20.19,3.36-40.04,7.89-58.97,13.48l-.75.22c-19.1,5.67-37.61,12.51-55,20.33l-.69.31c-17.63,7.96-34.43,17.08-49.95,27.09l-.62.4c-15.78,10.23-30.52,21.59-43.81,33.76l-.53.49c-6.73,6.19-13.21,12.71-19.26,19.37-6.04,6.66-11.78,13.59-17.05,20.62l-.42.55c-10.33,13.84-19.22,28.5-26.42,43.58l-.28.59c-7.02,14.8-12.56,30.28-16.45,46.01l-.15.62-1.48,6.42Z"/>
        <path class="cls-1" d="M684.68,189.35l-.34-.29s0,0-.01-.01c-17.4-14.81-35.81-28.67-54.7-41.2l-.74-.49c-18.52-12.25-37.87-23.45-57.5-33.3l-.77-.38c-19.31-9.65-39.25-18.17-59.25-25.32l-.79-.28c-19.77-7.03-39.95-12.85-59.99-17.3l-.79-.17c-19.9-4.38-39.98-7.48-59.71-9.22l-.78-.07c-19.69-1.7-39.33-2.06-58.4-1.08l-.76.04c-19.14,1.02-38,3.41-56.07,7.1l-.72.15c-18.23,3.76-35.97,8.92-52.73,15.34l-.66.26c-16.98,6.54-33.25,14.49-48.37,23.62l-.6.36c-15.38,9.34-29.84,20.1-42.99,31.96l-.52.47c-6.66,6.04-13.11,12.48-19.15,19.14-4.72,5.2-9.29,10.64-13.58,16.15l-.48.62h0s-.95-.73-.95-.73c.16-.2.31-.41.47-.61l.49-.63c4.28-5.49,8.83-10.91,13.54-16.09,6.07-6.69,12.54-13.15,19.23-19.22l.53-.48c13.2-11.91,27.72-22.71,43.16-32.08l.6-.37c15.17-9.17,31.5-17.14,48.54-23.69l.67-.26c16.81-6.43,34.61-11.59,52.89-15.36l.72-.15c18.12-3.69,37.04-6.08,56.22-7.08l.76-.04c19.11-.97,38.8-.59,58.53,1.13l.78.07c19.76,1.76,39.89,4.88,59.82,9.29l.79.18c20.07,4.48,40.28,10.33,60.08,17.4l.79.28c20.04,7.19,40,15.75,59.33,25.45l.77.39c19.65,9.89,39.02,21.14,57.57,33.44l.74.49c18.92,12.59,37.35,26.51,54.77,41.37l.34.29-.78.91Z"/>
        <path class="cls-1" d="M684.6,189.26h0s0,0,0,0l-.28-.35c-14.14-17.45-29.26-33.96-44.94-49.08l-.61-.59c-15.38-14.77-31.59-28.49-48.2-40.79l-.65-.48c-16.33-12.05-33.33-22.93-50.52-32.34l-.67-.37c-16.99-9.26-34.47-17.25-51.95-23.75l-.69-.25c-17.36-6.42-35.01-11.47-52.47-15.02l-.69-.14c-17.43-3.51-34.95-5.58-52.08-6.15l-.66-.02c-17.22-.54-34.31.42-50.81,2.86l-.65.1c-16.66,2.5-33,6.54-48.59,12.02l-.62.22c-2.21.92-4.67,1.9-7.22,2.93-2.68,1.08-5.51,2.22-8.31,3.37-1.14.49-2.26.98-3.36,1.46-2.46,1.08-4.85,2.12-7.04,3.05-.55.26-1.09.51-1.62.77l-.52-1.08h0s0,0,0,0l1.28-.62c.11-.05.23-.1.34-.15,3.2-1.49,6.8-3.03,10.44-4.53,5.46-2.37,11.25-4.84,16.12-6.59l.62-.22c15.65-5.5,32.06-9.55,48.78-12.05l.66-.1c16.57-2.44,33.71-3.4,50.96-2.85l.68.02c17.18.58,34.75,2.67,52.22,6.2l.69.14c17.5,3.57,35.19,8.66,52.58,15.11l.69.26c17.51,6.53,35.02,14.56,52.04,23.86l.67.37c17.22,9.45,34.24,20.37,50.58,32.46l.65.48c16.61,12.33,32.84,26.1,48.23,40.92l.61.59c15.69,15.17,30.82,31.73,44.96,49.23l.28.34h0s0,0,0,0l-.93.76Z"/>
        <path class="cls-1" d="M684.54,189.16l-.19-.37s0,0,0,0c-9.63-18.58-20.22-36.24-31.48-52.48l-.44-.63c-11.05-15.87-22.95-30.68-35.37-44.02l-.49-.52c-12.23-13.08-25.18-24.98-38.49-35.37l-.52-.41c-13.17-10.22-26.92-19.15-40.87-26.54l-.55-.29c-13.86-7.29-28.16-13.19-42.49-17.53l-.56-.17c-14.32-4.29-28.91-7.1-43.37-8.34l-.58-.05c-10-.83-20.11-.93-30.06-.29-.14,0-.28.02-.42.03l-1.13.08-.08-1.2s0,0,0,0h0c.52-.04,1.03-.07,1.55-.11,10.19-.69,20.56-.6,30.82.26l.58.05c14.52,1.25,29.17,4.08,43.54,8.39l.57.17c14.39,4.36,28.73,10.29,42.63,17.62l.55.29c13.99,7.42,27.76,16.39,40.95,26.65l.52.41c13.33,10.43,26.3,22.37,38.53,35.5l.49.52c12.43,13.39,24.33,28.24,35.37,44.16l.44.64c11.26,16.28,21.84,33.99,31.45,52.62h0s.19.37.19.37l-1.07.55Z"/>
        <path class="cls-1" d="M684.5,189.02l-.08-.36c-4.12-18.06-9.19-35.19-15.05-50.92l-.23-.61c-5.76-15.36-12.4-29.67-19.72-42.52l-.29-.5c-7.22-12.6-15.23-24.02-23.81-33.95l-.34-.39c-8.49-9.77-17.69-18.26-27.34-25.23l-.38-.27c-9.59-6.88-19.79-12.38-30.31-16.35l-.42-.16c-4.64-1.73-9.41-3.19-14.2-4.35-.05-.01-.11-.03-.16-.04l-.85-.2h0s.27-1.17.27-1.17c.34.08.68.16,1.02.24,5.03,1.18,10.05,2.71,14.93,4.53l.42.16c10.59,4,20.84,9.54,30.49,16.48l.38.27c9.69,7.02,18.92,15.56,27.44,25.39l.34.39c8.6,9.98,16.61,21.45,23.83,34.11l.28.5c7.32,12.9,13.94,27.26,19.68,42.67l.23.62c5.84,15.76,10.87,32.93,14.96,51.04l.08.36-1.17.26Z"/>
        <path class="cls-1" d="M685.69,188.96l-1.19-.15.04-.31c1.89-15.82,2.87-30.7,2.91-44.22v-.53c.02-13.2-.86-25.36-2.62-36.13l-.07-.42c-1.74-10.54-4.36-19.93-7.78-27.92l-.11-.26c-3.41-7.89-7.63-14.5-12.57-19.69l-.19-.2c-3.7-3.85-7.86-6.97-12.37-9.3l-.48-.24.54-1.07c.16.08.33.16.49.25l.13.07c4.77,2.39,9.16,5.66,13.04,9.71l.19.2c5,5.28,9.27,11.99,12.67,19.94l.13.31c3.42,8.06,6.02,17.53,7.74,28.14l.07.42c1.72,10.81,2.57,23.01,2.51,36.26v.53c-.09,13.55-1.11,28.45-3.06,44.3l-.04.31Z"/>
        <path class="cls-1" d="M685.61,189.21l-1.02-.63.15-.24c7.53-12.25,14.16-23.52,19.71-33.51l.22-.39c5.42-9.77,9.92-18.5,13.36-25.94l.13-.29c3.36-7.28,5.76-13.46,7.16-18.37l.42-.02s.01-.04.02-.06l-.39-.11c1.33-4.74,1.71-8.33,1.15-10.66-.28-1.09-.73-1.85-1.35-2.35l-.07-.06.74-.95s.06.05.09.07l.4.32c.86.65,1.46,1.64,1.77,2.94.61,2.61.19,6.38-1.23,11.3l-.06.19c-1.44,4.94-3.91,11.15-7.32,18.46l-.13.29c-3.5,7.45-8.04,16.17-13.52,25.93l-.22.39c-5.61,9.98-12.29,21.24-19.86,33.46l-.15.24Z"/>
        <path class="cls-1" d="M685.42,189.41l-.63-1.02.25-.15c12.41-7.63,23.97-14.29,34.34-19.78l.41-.21c10.13-5.35,19.32-9.69,27.32-12.89l.31-.12c7.85-3.13,14.69-5.21,20.33-6.19l.22-.04c5.6-.96,10.12-.83,13.44.38l.14.05c1.74.65,3.18,1.62,4.27,2.87l.31.35s.07.08.1.12l-.9.79-.1-.11c-.96-1.07-2.22-1.91-3.74-2.49l-.12-.05c-3.14-1.16-7.49-1.3-12.91-.41l-.19-.34s-.06.01-.09.01l.06.36c-5.58.94-12.37,2.97-20.17,6.03l-.31.12c-7.98,3.15-17.17,7.43-27.3,12.73l-.41.21c-10.38,5.44-21.95,12.05-34.37,19.63l-.25.15Z"/>
        <path class="cls-1" d="M836.67,225.11h0s-.24-.42-.24-.42c-3.29-5.61-7.57-10.72-12.74-15.18l-.24-.21c-6.17-5.27-13.71-9.75-22.41-13.29l-.35-.14c-8.86-3.58-19.06-6.26-30.33-7.98l-.45-.07c-11.51-1.73-24.34-2.49-38.11-2.25h-.55c-14.11.27-29.5,1.58-45.73,3.88l-.32.05-.17-1.19.32-.05c16.26-2.35,31.67-3.7,45.8-4.01h.55c13.83-.28,26.69.44,38.24,2.14l.45.07c11.33,1.7,21.61,4.37,30.53,7.95l.35.14c8.8,3.56,16.43,8.07,22.69,13.4l.25.21c5.36,4.61,9.78,9.9,13.14,15.73l.11.2c.08.14.16.28.25.42l-1.04.6Z"/>
        <path class="cls-1" d="M878.74,323.59h0s-.18-.63-.18-.63c-2.04-6.89-4.65-13.69-7.78-20.23l-.2-.42c-5.17-10.73-11.85-21.03-19.85-30.64l-.25-.29c-8.17-9.74-17.75-18.84-28.54-27.14l-.43-.33c-10.97-8.38-23.38-16.08-36.87-22.89l-.54-.27c-13.77-6.91-28.94-13.01-45.06-18.15l-.64-.21c-16.5-5.22-34.34-9.54-53.01-12.83l-.37-.06.21-1.18.37.06c18.71,3.26,36.59,7.54,53.13,12.74l.65.2c16.18,5.12,31.39,11.21,45.2,18.1l.54.27c13.56,6.81,26.02,14.51,37.03,22.9l.43.33c10.85,8.31,20.48,17.44,28.63,27.13l.32.38c8.05,9.64,14.78,20,19.98,30.79l.21.43c3.19,6.68,5.86,13.64,7.92,20.68l.08.27c.06.21.13.43.19.64l-1.15.34Z"/>
        <path class="cls-1" d="M897.59,467.83l-1.2-.05h0s.09-2.29.09-2.29c.49-14.89-.57-29.98-3.16-44.86l-.1-.59c-2.63-14.85-6.82-29.73-12.47-44.24l-.22-.57c-5.69-14.52-12.93-28.9-21.53-42.75l-.34-.55c-8.69-13.93-18.9-27.56-30.34-40.5l-.45-.51c-11.62-13.09-24.71-25.71-38.9-37.49l-.57-.47c-14.47-11.98-30.35-23.32-47.21-33.72l-.67-.41c-17.24-10.6-35.83-20.41-55.25-29.17l-.39-.17.49-1.09.38.17c19.47,8.75,38.11,18.55,55.39,29.13l.67.41c16.9,10.39,32.83,21.73,47.35,33.71l.57.47c14.24,11.79,27.37,24.42,39.03,37.52l.46.51c11.48,12.96,21.73,26.61,30.46,40.57l.34.55c8.63,13.88,15.91,28.3,21.63,42.87l.22.57c5.68,14.55,9.89,29.49,12.54,44.39l.1.6c2.61,14.96,3.68,30.16,3.18,45.15l-.02.52s0,.07,0,.11l-.08,2.19Z"/>
        <path class="cls-1" d="M852.74,645.83l-1.08-.53h0s0,0,0,0l.58-1.2c.3-.63.61-1.26.9-1.89l.29-.61c7.21-15.34,12.98-31.52,17.15-48.09l.16-.65c4.08-16.35,6.68-33.38,7.74-50.62l.04-.67c1.01-17.08.52-34.65-1.46-52.22l-.08-.7c-2.01-17.51-5.52-35.31-10.44-52.92l-.19-.7c-4.97-17.63-11.43-35.36-19.21-52.69l-.31-.69c-7.87-17.45-17.21-34.79-27.75-51.54l-.42-.66c-10.71-16.95-22.85-33.6-36.09-49.48l-.53-.63c-13.49-16.14-28.36-31.78-44.2-46.5l-.63-.59c-16.21-15.01-33.73-29.34-52.09-42.59l-.36-.26.7-.98.37.26c18.42,13.25,35.99,27.58,52.25,42.6l.63.59c15.89,14.72,30.81,30.37,44.35,46.53l.53.63c13.28,15.89,25.46,32.56,36.22,49.53l.42.67c10.58,16.77,19.96,34.14,27.87,51.62l.31.69c7.81,17.36,14.3,35.12,19.3,52.79l.2.7c4.95,17.65,8.48,35.49,10.5,53.04l.08.7c1.99,17.62,2.49,35.24,1.48,52.38l-.04.68c-1.06,17.3-3.67,34.39-7.76,50.79l-.16.65c-4.19,16.65-9.99,32.89-17.22,48.28l-.29.61c-.36.77-.73,1.54-1.11,2.31l-.08.16c-.19.39-.38.79-.57,1.18h0s0,0,0,0Z"/>
        <path class="cls-1" d="M720.78,806.48l-.73-.95.51-.39c5.75-4.4,11.38-9.08,16.76-13.93l.52-.47c6.59-5.97,13.01-12.38,19.05-19.04,6.04-6.65,11.84-13.7,17.25-20.94l.42-.57c10.6-14.28,20.01-29.8,27.99-46.14l.31-.64c7.79-16.05,14.34-33.19,19.47-50.94l.2-.69c5.02-17.51,8.75-35.92,11.08-54.71l.09-.74c2.27-18.63,3.22-37.96,2.8-57.45l-.02-.77c-.45-19.42-2.24-39.33-5.34-59.17l-.12-.78c-3.14-19.87-7.64-40.01-13.37-59.85l-.23-.79c-5.8-19.98-12.96-39.99-21.26-59.5l-.33-.77c-8.44-19.74-18.21-39.29-29.03-58.12l-.43-.75c-11.04-19.14-23.38-37.88-36.68-55.71l-.53-.71c-13.61-18.19-28.47-35.77-44.19-52.26l-.31-.33.87-.83.31.33c15.77,16.5,30.69,34.1,44.35,52.31l.53.71c13.35,17.85,25.74,36.61,36.82,55.77l.43.75c10.87,18.86,20.68,38.44,29.16,58.2l.33.78c8.34,19.52,15.53,39.57,21.37,59.59l.23.79c5.76,19.88,10.29,40.05,13.45,59.96l.12.78c3.13,19.88,4.94,39.83,5.41,59.29l.02.78c.43,19.54-.5,38.92-2.77,57.6l-.09.74c-2.32,18.84-6.05,37.3-11.08,54.87l-.2.7c-5.14,17.8-11.71,35-19.52,51.11l-.31.64c-8.01,16.4-17.46,31.98-28.1,46.32l-.43.57c-5.43,7.27-11.25,14.35-17.32,21.03-6.07,6.68-12.51,13.12-19.14,19.13l-.52.47c-5.34,4.81-10.93,9.47-16.61,13.82l-.73.56c-.16.12-.31.24-.47.36h-.02s0,.01,0,.01Z"/>
        <path class="cls-1" d="M550.5,886.43h0s0,0,0,0l-.27-1.17.23-.05c8.04-1.88,16.05-4.22,23.83-6.96l.58-.21c14.95-5.29,29.55-12.22,43.4-20.58l.55-.33c14.11-8.56,27.71-18.79,40.42-30.38l.51-.46c6.45-5.91,12.78-12.28,18.83-18.94,6.05-6.66,11.93-13.74,17.48-21.05l.44-.57c10.91-14.42,20.94-30.22,29.81-46.98l.35-.65c8.68-16.46,16.41-34.14,22.97-52.54l.26-.72c6.44-18.16,11.86-37.34,16.11-57.02l.17-.77c4.18-19.5,7.29-39.82,9.23-60.4l.08-.82c1.91-20.49,2.7-41.58,2.34-62.69l-.02-.83c-.38-21.14-1.92-42.63-4.56-63.88l-.1-.84c-2.69-21.4-6.55-42.93-11.47-63.97l-.19-.83c-5.01-21.3-11.2-42.49-18.39-62.97l-.29-.81c-7.34-20.82-15.86-41.31-25.32-60.88l-.38-.78c-9.68-19.97-20.54-39.37-32.26-57.69l-.23-.36,1.01-.65.23.36c11.78,18.35,22.69,37.79,32.43,57.79l.38.78c9.51,19.6,18.08,40.12,25.47,60.98l.29.82c7.24,20.52,13.46,41.74,18.51,63.07l.2.84c4.96,21.09,8.85,42.64,11.57,64.08l.1.8c2.68,21.34,4.24,42.87,4.64,64.03l.02.84c.38,21.13-.39,42.26-2.28,62.8l-.08.82c-1.93,20.61-5.02,40.98-9.2,60.53l-.17.77c-4.24,19.72-9.66,38.95-16.1,57.16l-.26.72c-6.57,18.46-14.31,36.19-23.01,52.69l-.34.66c-8.9,16.81-18.96,32.66-29.9,47.14l-.44.58c-5.58,7.34-11.48,14.45-17.55,21.13-6.07,6.69-12.43,13.09-18.91,19.02l-.51.47c-12.77,11.65-26.44,21.92-40.62,30.53l-.55.34c-13.93,8.41-28.62,15.37-43.65,20.69l-.59.21c-7.69,2.7-15.61,5.02-23.54,6.9l-1.25.29Z"/>
        <path class="cls-1" d="M418.36,896.27c-4.91,0-9.8-.22-14.65-.66l-.51-.05c-.5-.05-1-.1-1.5-.15l-.97-.1s0,0,0,0h0l.13-1.19c.61.07,1.23.13,1.85.18l.5.05c12.76,1.16,25.78.78,38.7-1.14l.51-.08c13.04-1.98,26.21-5.57,39.14-10.67l.51-.2c13.12-5.21,26.22-12.07,38.95-20.38l.51-.33c12.97-8.52,25.8-18.7,38.12-30.28l.49-.46c6.25-5.9,12.49-12.27,18.54-18.93,6.05-6.66,12.03-13.75,17.78-21.07l.45-.57c11.31-14.44,22.12-30.29,32.13-47.1l.39-.66c9.81-16.52,19.04-34.27,27.42-52.77l.33-.72c8.25-18.25,15.83-37.54,22.53-57.33l.26-.78c6.61-19.62,12.48-40.07,17.44-60.79l.2-.82c4.91-20.64,9-41.89,12.16-63.15l.12-.84c3.14-21.3,5.39-42.97,6.69-64.4l.05-.85c1.29-21.59,1.64-43.31,1.04-64.55l-.02-.84c-.63-21.49-2.25-42.89-4.8-63.59l-.1-.82c-2.62-21.04-6.27-41.75-10.83-61.54l-.18-.79c-4.68-20.19-10.42-39.83-17.04-58.37l-.13-.37,1.13-.41.13.37c6.68,18.58,12.47,38.27,17.2,58.52l.18.79c4.61,19.84,8.3,40.59,10.97,61.67l.1.82c2.6,20.74,4.25,42.17,4.92,63.72l.03.84c.63,21.29.32,43.05-.94,64.67l-.05.85c-1.27,21.48-3.5,43.18-6.61,64.51l-.12.84c-3.13,21.29-7.2,42.58-12.1,63.25l-.2.83c-4.94,20.75-10.79,41.25-17.4,60.9l-.26.78c-6.69,19.83-14.27,39.15-22.52,57.44l-.33.72c-8.39,18.54-17.63,36.33-27.45,52.89l-.39.66c-10.03,16.86-20.87,32.75-32.2,47.23l-.45.58c-5.77,7.34-11.77,14.45-17.83,21.13-6.07,6.68-12.33,13.08-18.61,19l-.49.47c-12.37,11.63-25.26,21.86-38.3,30.41l-.51.33c-12.8,8.35-25.99,15.24-39.2,20.48l-.51.2c-13.03,5.13-26.3,8.74-39.45,10.73l-.52.08c-8.12,1.21-16.28,1.81-24.39,1.81Z"/>
        <path class="cls-1" d="M315.94,872.73c-.92,0-1.83-.01-2.74-.04h-.37c-9.14-.33-17.9-2.07-26.06-5.18l-.73-.28.38-1.14c8.13,2.28,18.5,4.34,25.81,5.12h.32c9.23.28,19.05-.92,29.13-3.56l.4-.11c10.2-2.71,20.86-6.93,31.69-12.56l.43-.23c11-5.75,22.38-13.05,33.8-21.7l.45-.34c11.65-8.86,23.58-19.28,35.46-30.99l.48-.47c6.03-5.96,12.16-12.37,18.21-19.03,6.05-6.67,12.15-13.73,18.13-20.99l.47-.57c11.77-14.34,23.49-29.96,34.83-46.43l.44-.64c11.13-16.2,22.1-33.52,32.61-51.47l.41-.7c10.35-17.72,20.44-36.37,29.98-55.45l.37-.75c9.44-18.89,18.51-38.53,26.97-58.38l.34-.79c8.4-19.75,16.33-40.02,23.56-60.25l.28-.8c7.23-20.27,13.88-40.82,19.76-61.08l.23-.8c5.91-20.41,11.15-40.88,15.57-60.85l.17-.79c4.45-20.21,8.15-40.25,10.98-59.58l.11-.77c2.86-19.65,4.88-38.92,6-57.25l.04-.73c1.12-18.72,1.34-36.84.63-53.86v-.34s1.19-.05,1.19-.05l.02.34c.75,17.09.58,35.27-.5,54.04l-.04.74c-1.08,18.39-3.06,37.7-5.88,57.4l-.11.77c-2.8,19.37-6.45,39.46-10.88,59.71l-.17.8c-4.38,20-9.59,40.51-15.48,60.97l-.23.8c-5.86,20.31-12.48,40.89-19.68,61.19l-.28.8c-7.2,20.25-15.11,40.56-23.5,60.35l-.33.79c-8.44,19.87-17.5,39.54-26.93,58.47l-.37.75c-9.54,19.11-19.62,37.79-29.97,55.54l-.41.7c-10.51,17.99-21.48,35.34-32.61,51.56l-.44.65c-11.35,16.51-23.08,32.16-34.87,46.52l-.47.57c-5.99,7.29-12.11,14.37-18.16,21.04-6.07,6.68-12.21,13.1-18.26,19.08l-.48.47c-11.91,11.73-23.88,22.19-35.59,31.08l-.46.35c-11.48,8.68-22.93,16.01-34.01,21.79l-.43.22c-10.92,5.66-21.69,9.91-32,12.63l-.41.11c-9.22,2.4-18.23,3.62-26.8,3.62Z"/>
        <path class="cls-1" d="M214.17,827.46c-2.2,0-4.23-.25-6.1-.75l-.17-.05c-1.83-.5-3.52-1.26-5.04-2.24l-.54-.35.66-1.01c1.41.91,2.99,1.61,4.69,2.07l.16.04c4.1,1.08,9.06.89,14.77-.57l.23-.06c5.8-1.52,12.44-4.35,19.73-8.44l.21-.12c7.48-4.21,15.68-9.73,24.45-16.44l.35-.27c8.92-6.85,18.59-15.06,28.73-24.39l.4-.37c10.35-9.54,21.4-20.44,32.83-32.39l.46-.48c5.82-6.09,11.83-12.55,17.88-19.22,6.08-6.69,12.29-13.7,18.48-20.83l.49-.56c12.22-14.1,24.84-29.26,37.5-45.07l.49-.62c12.42-15.52,25.12-31.95,37.73-48.82l.49-.66c12.42-16.63,24.99-34,37.37-51.62l.49-.69c12.25-17.47,24.5-35.46,36.4-53.48l.47-.72c11.86-17.97,23.59-36.27,34.84-54.39l.45-.72c11.27-18.16,22.27-36.45,32.69-54.36l.41-.71c10.47-18.03,20.55-35.99,29.94-53.38l.37-.69c9.49-17.6,18.43-34.91,26.59-51.46l.32-.66c8.27-16.81,15.89-33.16,22.65-48.6l.27-.61c6.86-15.72,12.96-30.78,18.11-44.77l.1-.28,1.13.42h0s-.1.28-.1.28c-5.12,14.04-11.18,29.15-18.01,44.92l-.27.62c-6.72,15.47-14.3,31.86-22.55,48.72l-.32.66c-8.13,16.59-17.05,33.94-26.5,51.57l-.37.69c-9.35,17.4-19.39,35.4-29.86,53.48l-.41.71c-10.4,17.95-21.37,36.27-32.62,54.45l-.44.72c-11.24,18.15-22.94,36.48-34.78,54.47l-.47.72c-11.91,18.08-24.14,36.1-36.36,53.55l-.48.69c-12.36,17.65-24.92,35.04-37.33,51.69l-.49.66c-12.6,16.89-25.3,33.34-37.72,48.88l-.5.62c-12.66,15.83-25.29,31.01-37.51,45.12l-.49.56c-6.21,7.16-12.44,14.18-18.49,20.85-6.06,6.67-12.08,13.15-17.91,19.24l-.46.48c-11.44,11.95-22.51,22.86-32.9,32.43l-.41.37c-10.18,9.35-19.88,17.57-28.85,24.43l-.36.27c-8.82,6.73-17.09,12.27-24.56,16.46l-.29.16c-7.41,4.12-14.16,6.99-20.09,8.51l-.12.03c-3.43.86-6.58,1.29-9.46,1.29Z"/>
        <path class="cls-1" d="M137.65,772.36l-.44-.42c-.49-.51-.54-1.31-.17-2.48.63-1.94,2.28-4.83,5.06-8.91l.11-.16c2.76-4.03,6.61-9.18,11.45-15.31l.19-.25c4.9-6.21,10.91-13.53,17.84-21.76l.28-.33c7.07-8.38,15.21-17.84,24.19-28.11l.36-.41c9.17-10.47,19.42-22.02,30.48-34.33l.44-.49c5.61-6.24,11.47-12.74,17.6-19.48,6.12-6.74,12.39-13.61,18.79-20.6l.5-.55c12.68-13.83,26.1-28.36,39.9-43.19l.54-.58c13.64-14.65,27.88-29.84,42.33-45.16l.57-.6c14.36-15.22,29.16-30.82,43.98-46.34l.58-.61c14.77-15.47,29.87-31.19,44.86-46.72l.6-.62c14.97-15.51,30.1-31.08,44.96-46.3l.59-.6c14.92-15.27,29.82-30.44,44.28-45.08l.57-.58c14.54-14.71,28.95-29.2,42.83-43.07l.55-.55c13.98-13.96,27.64-27.5,40.6-40.26l.51-.51c13.13-12.92,25.78-25.25,37.59-36.65l.47-.45c12.02-11.6,23.39-22.45,33.8-32.24l.2-.19.83.87-.2.19c-10.34,9.79-21.67,20.67-33.68,32.33l-.47.46c-11.71,11.37-24.32,23.73-37.48,36.74l-.51.51c-12.83,12.69-26.46,26.26-40.5,40.34l-.55.55c-13.83,13.87-28.21,28.39-42.74,43.15l-.57.58c-14.53,14.77-29.41,29.96-44.2,45.15l-.59.6c-14.86,15.27-29.96,30.87-44.89,46.36l-.59.62c-15.04,15.62-30.11,31.35-44.8,46.77l-.59.61c-14.91,15.66-29.7,31.26-43.93,46.38l-.57.6c-14.55,15.45-28.78,30.65-42.29,45.19l-.54.58c-13.82,14.86-27.23,29.4-39.87,43.19l-.5.55c-6.4,6.99-12.67,13.86-18.79,20.6-6.12,6.74-11.98,13.23-17.59,19.47l-.44.49c-11.07,12.31-21.32,23.85-30.49,34.3l-.36.41c-9,10.27-17.14,19.71-24.21,28.06l-.28.33c-6.93,8.19-12.94,15.49-17.87,21.69l-.19.24c-4.83,6.08-8.69,11.19-11.46,15.19l-.11.16c-2.7,3.9-4.36,6.75-4.95,8.46-.35,1.05-.18,1.29-.18,1.29l-.85.85ZM142.59,760.89l.12.08.03-.04-.15-.04Z"/>
        <path class="cls-1" d="M82.65,708.42l-.38-.54c-1.08-1.54-2.03-3.2-2.83-4.93l-.1-.22c-2.43-5.33-3.59-11.59-3.43-18.62v-.28c.2-7.03,1.71-14.95,4.5-23.53l.11-.34c2.84-8.66,7.02-18.14,12.43-28.18l.21-.4c5.52-10.19,12.4-21.14,20.44-32.55l.32-.45c8.24-11.64,17.84-23.97,28.55-36.65l.43-.5c5.45-6.44,11.29-13.1,17.36-19.78,6.05-6.67,12.46-13.51,19.05-20.32l.52-.53c12.97-13.4,27.06-27.17,41.88-40.93l.58-.54c14.55-13.49,30.07-27.21,46.13-40.79l.63-.53c15.83-13.37,32.47-26.84,49.45-40.03l.67-.52c16.83-13.06,34.28-26.06,51.85-38.64l.7-.5c17.51-12.52,35.45-24.85,53.31-36.63l.71-.47c17.88-11.78,36-23.22,53.85-34l.7-.43c17.98-10.84,35.97-21.19,53.47-30.75l.69-.38c17.72-9.66,35.27-18.7,52.16-26.87l.67-.32c17.17-8.28,33.97-15.81,49.93-22.36l.64-.26c16.28-6.67,32.02-12.47,46.76-17.23l.29-.09.37,1.14-.29.09c-14.69,4.79-30.36,10.62-46.6,17.32l-.63.26c-15.91,6.58-32.66,14.14-49.78,22.45l-.67.33c-16.85,8.19-34.35,17.25-52.03,26.94l-.69.38c-17.48,9.59-35.43,19.96-53.36,30.82l-.7.43c-17.81,10.8-35.89,22.26-53.75,34.06l-.7.47c-17.83,11.8-35.73,24.14-53.22,36.68l-.7.5c-17.54,12.6-34.96,25.61-51.76,38.68l-.67.52c-16.96,13.2-33.57,26.67-49.37,40.04l-.63.53c-16.04,13.59-31.54,27.31-46.06,40.79l-.58.54c-14.79,13.74-28.86,27.5-41.82,40.9l-.52.53c-6.58,6.81-12.98,13.64-19.03,20.3-6.05,6.66-11.88,13.31-17.33,19.74l-.43.5c-10.69,12.66-20.28,24.95-28.5,36.55l-.32.45c-8.03,11.36-14.89,22.26-20.39,32.39l-.21.4c-5.38,9.96-9.55,19.36-12.38,27.93l-.11.33c-2.76,8.45-4.27,16.23-4.48,23.14v.26c-.18,6.82.92,12.89,3.26,18.03l.09.2c.78,1.67,1.7,3.27,2.74,4.76l-.98.69Z"/>
        <path class="cls-1" d="M35.51,623.84l-.32-.75c-3.02-7.25-5.21-14.93-6.51-22.85l-.07-.41c-1.64-10.28-1.82-21.18-.52-32.38l.05-.44c1.35-11.31,4.21-23.13,8.52-35.13l.17-.48c4.41-12.17,10.38-24.75,17.75-37.39l.29-.5c7.54-12.87,16.68-26.05,27.16-39.17l.42-.52c5.33-6.65,11.12-13.42,17.19-20.11,6.06-6.68,12.53-13.41,19.24-20.02l.53-.52c13.23-13,27.8-25.93,43.3-38.45l.61-.49c15.25-12.28,31.68-24.39,48.85-36l.67-.45c16.94-11.43,34.89-22.57,53.36-33.11l.72-.41c18.3-10.43,37.43-20.45,56.84-29.79l.77-.37c19.34-9.29,39.29-18.05,59.28-26.05l.79-.31c20.03-7.99,40.46-15.35,60.7-21.86l.8-.26c20.38-6.54,40.93-12.34,61.08-17.25l.8-.19c20.39-4.94,40.72-9.05,60.42-12.2l.79-.13c20.03-3.18,39.8-5.44,58.74-6.71l.76-.05c19.33-1.27,38.18-1.54,56.02-.79h.35s-.05,1.21-.05,1.21h-.35c-17.78-.72-36.57-.41-55.84.9l-.75.05c-18.89,1.31-38.6,3.6-58.59,6.82l-.78.13c-19.66,3.19-39.94,7.32-60.28,12.29l-.8.2c-20.1,4.93-40.61,10.76-60.95,17.33l-.8.26c-20.2,6.54-40.58,13.92-60.58,21.93l-.79.32c-19.96,8.01-39.87,16.79-59.18,26.09l-.77.37c-19.37,9.35-38.46,19.39-56.74,29.82l-.72.41c-18.44,10.55-36.36,21.7-53.26,33.12l-.67.45c-17.13,11.6-33.54,23.7-48.75,35.97l-.6.49c-15.48,12.51-30.02,25.43-43.21,38.39l-.53.52c-6.67,6.58-13.13,13.29-19.19,19.97-6.04,6.66-11.81,13.4-17.14,20.05l-.42.52c-10.44,13.07-19.55,26.19-27.07,39.01l-.29.5c-7.34,12.57-13.28,25.07-17.67,37.16l-.17.47c-4.28,11.9-7.14,23.61-8.48,34.81l-.05.44c-1.29,11.07-1.13,21.83.49,31.99l.06.4c1.28,7.87,3.46,15.5,6.48,22.69h0s-1.11.47-1.11.47Z"/>
      </g>
      <path class="cls-1" d="M448.98,897.96c-60.61,0-119.41-11.87-174.76-35.28-53.46-22.61-101.48-54.99-142.71-96.22-41.23-41.23-73.61-89.25-96.22-142.71C11.87,568.39,0,509.59,0,448.98s11.87-119.41,35.28-174.76c22.61-53.46,54.99-101.48,96.22-142.71,41.23-41.23,89.25-73.61,142.71-96.22C329.57,11.87,388.37,0,448.98,0s119.41,11.87,174.76,35.28c53.46,22.61,101.48,54.99,142.71,96.22,41.23,41.23,73.61,89.25,96.22,142.71,23.41,55.35,35.28,114.15,35.28,174.76s-11.87,119.41-35.28,174.76c-22.61,53.46-54.99,101.48-96.22,142.71-41.23,41.23-89.25,73.61-142.71,96.22-55.35,23.41-114.15,35.28-174.76,35.28ZM448.98,1.2C202.07,1.2,1.2,202.07,1.2,448.98s200.87,447.78,447.78,447.78,447.78-200.87,447.78-447.78S695.88,1.2,448.98,1.2Z"/>
    </g>
  </g>
</svg>